<svg id="Layer_1" data-name="Layer 1" xmlns="http://www.w3.org/2000/svg" viewBox="0 0 90.02 21.91"><defs><style>.cls-1{fill:#497af3;}.cls-2{fill:#11cc84;}</style></defs><title>BeJobStudents</title><path class="cls-1" d="M52.36,14.67a13.93,13.93,0,0,1-.21,2.3,5.92,5.92,0,0,1-1,2.35A5.83,5.83,0,0,1,49,21.17a8.37,8.37,0,0,1-3.82.74,9.1,9.1,0,0,1-2.61-.38,6.53,6.53,0,0,1-2.25-1.17,5.8,5.8,0,0,1-1.59-2,6.92,6.92,0,0,1-.6-3V13.44h4.26v1a8.06,8.06,0,0,0,.12,1.44A3.09,3.09,0,0,0,43,17a2,2,0,0,0,.83.73,3,3,0,0,0,1.36.27,2.62,2.62,0,0,0,1.44-.33,2,2,0,0,0,.74-.85,3.53,3.53,0,0,0,.27-1.14c0-.41,0-.81,0-1.19V0h4.72Z"/><path class="cls-1" d="M55.56,13.69a9.55,9.55,0,0,1,.57-3.38,7.4,7.4,0,0,1,1.62-2.59,7.26,7.26,0,0,1,2.52-1.65,9.9,9.9,0,0,1,6.62,0,7.11,7.11,0,0,1,4.16,4.24,9.55,9.55,0,0,1,.57,3.38A9.3,9.3,0,0,1,71.05,17a7,7,0,0,1-1.63,2.55,7.19,7.19,0,0,1-2.53,1.64,9.58,9.58,0,0,1-6.62,0,7.24,7.24,0,0,1-2.52-1.64A7.14,7.14,0,0,1,56.13,17,9.3,9.3,0,0,1,55.56,13.69Zm4.26,0A9.11,9.11,0,0,0,60,15.5a4.83,4.83,0,0,0,.61,1.59,3.29,3.29,0,0,0,3,1.55,3.49,3.49,0,0,0,1.81-.43,3.31,3.31,0,0,0,1.17-1.12,4.83,4.83,0,0,0,.61-1.59,8.43,8.43,0,0,0,.19-1.81,8.64,8.64,0,0,0-.19-1.84,4.66,4.66,0,0,0-.61-1.59,3.31,3.31,0,0,0-1.17-1.12,3.49,3.49,0,0,0-1.81-.44,3.32,3.32,0,0,0-3,1.56A4.66,4.66,0,0,0,60,11.85,9.33,9.33,0,0,0,59.82,13.69Z"/><path class="cls-1" d="M74.38,0h4.27V7.8h0A4.53,4.53,0,0,1,80.81,6,7.37,7.37,0,0,1,83.6,5.5,5.83,5.83,0,0,1,88,7.44,7.5,7.5,0,0,1,89.45,10,10.68,10.68,0,0,1,90,13.66a10.64,10.64,0,0,1-.57,3.67A7.5,7.5,0,0,1,88,19.86a6.06,6.06,0,0,1-2,1.48,5.9,5.9,0,0,1-2.31.48,8.18,8.18,0,0,1-3.06-.54,3.88,3.88,0,0,1-2-1.83h-.07v2H74.38ZM85.75,13.69a8.33,8.33,0,0,0-.2-1.9,4.94,4.94,0,0,0-.66-1.59,3.39,3.39,0,0,0-1.14-1.09,3.18,3.18,0,0,0-1.63-.41,3.11,3.11,0,0,0-1.63.41,3.56,3.56,0,0,0-1.13,1.09,4.94,4.94,0,0,0-.66,1.59,8.93,8.93,0,0,0-.2,1.9,8.74,8.74,0,0,0,.2,1.85,4.94,4.94,0,0,0,.66,1.59,3.59,3.59,0,0,0,1.13,1.1,3.11,3.11,0,0,0,1.63.41,3.18,3.18,0,0,0,1.63-.41,3.42,3.42,0,0,0,1.14-1.1,4.94,4.94,0,0,0,.66-1.59A8.13,8.13,0,0,0,85.75,13.69Z"/><path class="cls-2" d="M0,0H10.09a13.51,13.51,0,0,1,2.8.27A6,6,0,0,1,15,1.16a4.09,4.09,0,0,1,1.39,1.63,5.59,5.59,0,0,1,.5,2.51A4.61,4.61,0,0,1,16.18,8,5.33,5.33,0,0,1,14,9.77a5.21,5.21,0,0,1,3,2,6,6,0,0,1,1,3.44A5.92,5.92,0,0,1,17.33,18,5.55,5.55,0,0,1,15.63,20a7.44,7.44,0,0,1-2.44,1.11,10.91,10.91,0,0,1-2.8.36H0ZM4.72,8.67H9.48a3.42,3.42,0,0,0,2.08-.6,2.27,2.27,0,0,0,.81-1.95,2.46,2.46,0,0,0-.27-1.23,2,2,0,0,0-.72-.75,2.93,2.93,0,0,0-1-.37,6.72,6.72,0,0,0-1.21-.11H4.72Zm0,9.09h5a6.29,6.29,0,0,0,1.32-.13,3.24,3.24,0,0,0,1.11-.45,2.2,2.2,0,0,0,.76-.86A2.93,2.93,0,0,0,13.24,15a2.77,2.77,0,0,0-.93-2.36,4,4,0,0,0-2.46-.71H4.72Z"/><path class="cls-2" d="M24.19,14.7a4.32,4.32,0,0,0,1,3,3.77,3.77,0,0,0,2.76.95A3.8,3.8,0,0,0,30.22,18a2.72,2.72,0,0,0,1.14-1.37h3.75a7.2,7.2,0,0,1-2.76,4,8.05,8.05,0,0,1-4.5,1.22,8.66,8.66,0,0,1-3.3-.6,7,7,0,0,1-2.49-1.67A7.46,7.46,0,0,1,20.48,17a9.47,9.47,0,0,1-.56-3.29,9.06,9.06,0,0,1,.57-3.25,7.74,7.74,0,0,1,1.62-2.59,7.66,7.66,0,0,1,2.51-1.73,8.23,8.23,0,0,1,3.23-.62,7.37,7.37,0,0,1,3.45.76,6.7,6.7,0,0,1,2.42,2.05,8.45,8.45,0,0,1,1.37,2.94,11,11,0,0,1,.3,3.45ZM31.12,12a4.93,4.93,0,0,0-1.07-2.46,3,3,0,0,0-2.33-.84A3.71,3.71,0,0,0,26,9.05,3.32,3.32,0,0,0,25,9.9,3,3,0,0,0,24.38,11a4.85,4.85,0,0,0-.19,1Z"/></svg>